<?xml version="1.0" standalone="no"?>
<!DOCTYPE svg PUBLIC "-//W3C//DTD SVG 20010904//EN"
 "http://www.w3.org/TR/2001/REC-SVG-20010904/DTD/svg10.dtd">
<svg version="1.0" xmlns="http://www.w3.org/2000/svg"
 width="769.000000pt" height="1280.000000pt" viewBox="0 0 769.000000 1280.000000"
 preserveAspectRatio="xMidYMid meet">
<metadata>
Created by potrace 1.15, written by Peter Selinger 2001-2017
</metadata>
<g transform="translate(0.000000,1280.000000) scale(0.100000,-0.100000)"
fill="#000000" stroke="none">
<path d="M3092 12787 c-181 -57 -306 -516 -272 -996 21 -307 114 -799 199
-1066 46 -143 76 -420 61 -558 -11 -98 -38 -146 -135 -243 -61 -61 -89 -80
-190 -128 -250 -120 -525 -343 -616 -501 -47 -81 -102 -211 -134 -320 -56
-186 -68 -217 -115 -287 -26 -40 -87 -116 -134 -168 -48 -52 -99 -112 -114
-132 -15 -21 -31 -38 -35 -38 -5 0 -40 64 -78 143 -80 163 -81 149 -2 -34 l54
-127 -28 -41 c-15 -22 -31 -40 -36 -41 -4 0 -92 42 -195 94 -231 116 -536 245
-548 233 -2 -1 50 -25 114 -52 144 -60 537 -256 576 -288 l28 -23 -26 -53
c-18 -34 -32 -51 -41 -47 -78 30 -650 168 -687 165 -7 0 81 -24 197 -53 186
-47 442 -126 475 -146 20 -12 -18 -102 -39 -95 -43 13 -234 37 -388 47 -184
13 -425 1 -447 -22 -8 -9 13 -10 89 -4 236 21 559 1 704 -42 l51 -15 0 -83 c0
-71 -3 -85 -18 -91 -9 -3 -80 -18 -156 -31 -274 -48 -451 -104 -634 -200 -101
-53 -307 -177 -327 -197 -13 -12 -19 -16 145 75 185 103 301 161 388 192 135
48 478 126 557 126 32 0 34 -2 41 -45 11 -77 33 -63 -311 -207 -282 -118 -494
-226 -625 -317 -170 -119 -205 -153 -55 -54 149 97 434 241 740 371 116 49
220 92 231 96 19 6 23 0 37 -51 9 -32 19 -68 22 -79 6 -19 -8 -32 -97 -95
-201 -142 -474 -355 -588 -459 -45 -41 -26 -29 80 52 149 115 622 449 628 444
2 -3 -11 -18 -29 -33 -635 -527 -1009 -1104 -1132 -1749 -26 -133 -44 -284
-33 -273 3 3 15 57 27 120 90 505 290 957 573 1296 107 129 310 337 476 490
l135 124 13 -30 c12 -31 12 -32 -125 -188 -264 -304 -437 -533 -580 -771 -97
-161 -350 -659 -340 -669 3 -3 37 57 75 133 128 254 287 548 339 625 124 183
486 630 606 748 l55 54 22 -43 c12 -23 20 -50 17 -60 -2 -10 -49 -87 -103
-171 -149 -234 -341 -650 -405 -878 -43 -153 -35 -145 25 24 82 232 109 294
230 530 103 202 211 388 261 451 l20 26 28 -42 27 -42 -39 -96 c-21 -54 -79
-194 -128 -312 -153 -365 -200 -497 -227 -630 -31 -154 -63 -400 -70 -540 -5
-93 -2 -82 23 105 64 460 97 600 200 846 58 139 58 114 0 -117 -51 -207 -99
-445 -113 -564 l-6 -45 15 50 c8 28 40 167 70 310 81 378 97 433 192 684 119
314 111 302 174 256 19 -14 42 -28 52 -31 9 -4 17 -11 17 -16 0 -6 7 -7 16 -4
12 5 14 1 8 -16 -6 -20 -5 -21 10 -9 14 12 16 11 16 -3 0 -19 11 -21 29 -3 12
10 13 9 7 -7 -5 -15 -2 -17 14 -13 21 5 28 -7 10 -18 -5 -3 -10 -11 -10 -16 0
-5 11 -2 25 7 14 9 25 12 25 6 0 -6 -4 -14 -10 -17 -5 -3 -10 -11 -10 -16 0
-5 12 -2 26 8 27 17 27 17 15 -4 -17 -33 -13 -38 11 -17 23 20 23 23 1 -33 -6
-16 -3 -15 17 2 l23 20 -5 -22 c-7 -26 1 -29 21 -10 11 10 12 8 6 -11 -6 -21
-5 -23 13 -13 27 15 39 14 24 -1 -22 -22 -12 -29 15 -11 l28 18 -17 -26 c-16
-26 -16 -27 2 -22 30 8 24 -5 -12 -27 -32 -19 -32 -20 -8 -20 l25 -1 -22 -18
c-30 -25 -29 -29 5 -24 l27 4 -35 -30 c-32 -28 -33 -30 -10 -25 l25 6 -29 -27
-29 -26 39 6 39 7 -37 -26 c-45 -32 -47 -38 -10 -30 l27 5 -28 -25 c-31 -29
-30 -30 10 -16 26 9 25 7 -12 -26 -40 -37 -37 -39 24 -16 7 3 -6 -14 -30 -37
l-44 -42 35 17 35 16 -40 -42 c-26 -27 -32 -38 -18 -31 34 17 36 13 13 -19
-14 -19 -17 -30 -9 -30 7 0 0 -13 -16 -30 -30 -31 -28 -38 6 -20 24 14 24 5
-2 -31 -22 -31 -19 -35 12 -19 24 13 24 9 -3 -36 l-21 -36 21 6 c29 10 28 3
-9 -51 -27 -39 -28 -43 -10 -33 21 11 21 10 -4 -40 -25 -50 -26 -51 -4 -39
l22 11 -21 -30 c-27 -37 -27 -43 -5 -35 17 7 17 6 0 -20 -19 -30 -22 -41 -7
-32 18 11 10 -11 -10 -30 -26 -23 -26 -39 -1 -25 30 16 35 12 17 -15 -20 -30
-20 -36 -1 -29 19 8 19 0 -1 -38 -12 -24 -13 -32 -4 -38 10 -6 8 -15 -7 -36
-37 -53 -38 -57 -14 -44 l22 11 -21 -40 c-20 -41 -16 -53 9 -29 8 8 7 1 -3
-19 -17 -33 -10 -43 12 -21 7 7 4 -13 -8 -46 -15 -45 -16 -55 -5 -46 21 17 19
9 -12 -45 l-26 -47 28 18 28 18 -17 -32 c-20 -39 -20 -43 1 -35 15 6 14 1 -5
-31 -23 -39 -28 -61 -12 -51 25 15 7 -14 -21 -34 -23 -17 -28 -26 -19 -31 9
-6 -1 -18 -34 -41 -35 -25 -43 -35 -31 -39 13 -5 12 -8 -9 -20 -14 -7 -26 -17
-26 -22 0 -5 5 -6 10 -3 6 3 10 2 10 -2 0 -5 -15 -17 -32 -28 -28 -16 -30 -20
-14 -23 18 -4 18 -5 -5 -23 -15 -11 -19 -19 -10 -19 10 0 8 -7 -8 -24 l-22
-23 28 4 28 4 -25 -20 c-69 -55 -68 -53 -40 -47 24 5 24 4 -8 -24 -30 -28 -31
-30 -10 -30 l23 0 -25 -20 -25 -20 25 0 c24 0 24 -1 -7 -21 -38 -24 -42 -33
-12 -24 21 7 21 6 5 -16 -20 -29 -20 -40 -1 -33 22 9 18 -6 -7 -34 l-23 -24
30 8 30 7 -24 -27 c-14 -14 -19 -26 -12 -26 8 0 9 -5 1 -19 -14 -27 -13 -31 8
-24 13 5 11 0 -7 -20 l-24 -27 23 0 c22 0 23 -1 5 -20 -17 -19 -17 -20 0 -20
16 0 17 -2 3 -17 -26 -31 -31 -43 -12 -36 14 5 15 3 5 -15 -16 -30 -14 -34 11
-26 22 7 22 6 4 -21 -16 -24 -16 -27 -2 -22 21 8 20 1 -6 -36 -18 -25 -19 -29
-5 -24 23 9 21 -2 -5 -31 l-23 -25 23 6 c26 6 28 0 5 -25 -15 -17 -15 -18 1
-18 15 0 15 -2 -1 -27 -17 -26 -17 -26 5 -21 26 7 27 5 5 -29 -17 -26 -17 -26
5 -14 22 11 33 -1 12 -14 -19 -11 -10 -26 11 -20 18 6 20 5 10 -14 -8 -15 -8
-21 -1 -21 7 0 8 -6 0 -19 -15 -29 -12 -33 12 -20 22 12 22 12 5 -15 -15 -22
-15 -26 -2 -26 18 0 19 -5 4 -32 -9 -18 -8 -19 10 -13 24 7 26 3 10 -28 -9
-18 -9 -20 2 -9 23 21 32 13 15 -13 -17 -26 -9 -34 12 -13 15 15 15 3 1 -24
-10 -19 -9 -20 17 -14 27 7 28 7 11 -12 -22 -24 -22 -33 0 -25 13 5 15 2 10
-16 -5 -19 -2 -21 16 -15 l22 7 -20 -23 -20 -23 28 5 c31 6 33 2 10 -24 -15
-17 -15 -18 5 -18 25 0 28 -10 10 -29 -11 -11 -9 -12 10 -6 21 6 23 5 13 -13
-17 -32 -14 -47 6 -31 15 13 16 11 10 -19 -6 -30 -5 -33 14 -27 19 6 20 5 8
-16 -9 -17 -9 -24 0 -27 7 -2 8 -14 4 -30 -6 -24 -5 -26 10 -13 15 12 16 10
10 -19 -4 -24 -3 -31 6 -26 9 6 10 0 5 -20 -5 -20 -4 -25 6 -19 9 6 11 -1 6
-26 -3 -19 -3 -28 0 -21 10 22 21 12 16 -15 -5 -25 -4 -27 11 -14 15 12 16 10
10 -20 -6 -32 -5 -33 12 -19 17 14 17 13 10 -10 -4 -14 -10 -32 -13 -40 -5
-13 -4 -13 13 0 17 14 17 13 10 -10 -4 -14 -10 -32 -13 -40 -4 -10 2 -9 18 5
l23 20 -8 -25 c-4 -14 -10 -31 -13 -39 -4 -10 1 -11 17 -6 20 6 22 5 12 -13
-14 -27 -14 -45 1 -36 8 5 9 2 5 -9 -22 -54 -22 -53 -4 -38 20 16 22 8 6 -21
-10 -18 -9 -20 6 -14 18 7 18 -2 -1 -49 -7 -18 -6 -19 11 -5 20 16 20 17 -1
-35 -5 -11 -2 -13 10 -9 14 5 15 2 6 -21 -13 -33 -13 -38 0 -30 13 8 13 -1 -1
-27 -10 -18 -9 -20 5 -15 19 7 19 6 6 -29 -9 -24 -9 -25 5 -14 18 15 19 3 5
-34 -7 -21 -6 -24 6 -19 12 4 14 0 8 -22 -5 -20 -4 -26 5 -21 16 10 14 0 -6
-31 -17 -25 -17 -26 7 -18 19 6 22 4 17 -9 -4 -9 -10 -22 -13 -30 -4 -11 0
-13 16 -9 20 5 21 4 11 -15 -15 -28 -14 -35 4 -28 18 6 19 1 5 -25 -9 -15 -7
-19 5 -19 13 0 14 -4 5 -20 -8 -14 -8 -20 0 -20 7 0 7 -6 -1 -21 -10 -19 -9
-20 11 -14 21 7 21 6 5 -25 -16 -31 -16 -31 4 -20 25 13 27 3 4 -29 -16 -23
-16 -24 5 -19 19 5 20 3 11 -13 -8 -15 -6 -19 8 -19 16 -1 15 -3 -4 -19 -27
-22 -29 -31 -8 -31 18 0 19 -12 3 -28 -9 -9 -9 -12 0 -12 9 0 8 -8 -4 -25 -11
-17 -13 -25 -4 -25 7 0 9 -7 6 -15 -3 -8 -9 -22 -12 -30 -4 -10 0 -15 10 -15
15 0 15 -2 0 -25 -16 -24 -16 -25 7 -25 l22 0 -23 -25 -23 -25 21 0 c25 0 28
-10 10 -28 -9 -9 -7 -12 12 -12 22 0 23 -1 5 -20 -17 -19 -17 -20 -1 -20 16 0
15 -3 -3 -29 l-20 -28 25 5 26 5 -16 -32 c-15 -27 -15 -31 -1 -31 19 0 19 -4
-1 -42 -15 -29 -15 -30 1 -24 14 5 16 2 11 -18 -3 -13 -9 -31 -12 -40 -5 -12
-2 -15 9 -10 13 5 15 0 10 -33 -6 -33 -4 -36 9 -25 13 10 16 2 22 -65 3 -43
13 -103 21 -133 21 -80 18 -164 -12 -337 -31 -178 -29 -192 37 -237 30 -21 53
-49 70 -83 14 -28 34 -61 45 -73 66 -74 339 -149 600 -166 117 -7 263 8 343
36 66 24 110 26 118 6 3 -8 -2 -48 -11 -89 -23 -103 -10 -131 82 -191 92 -59
177 -101 248 -122 71 -20 248 -15 330 11 32 10 68 13 100 9 43 -5 58 -1 105
24 30 16 95 39 144 51 105 26 169 57 213 103 61 64 67 123 27 274 -16 60 -30
142 -34 209 -5 79 -20 164 -55 303 -26 106 -44 196 -41 200 4 3 20 -2 36 -12
33 -19 36 -14 15 24 -19 33 -18 41 2 33 12 -5 7 7 -16 35 l-33 43 38 -22 39
-23 -30 34 c-24 26 -26 30 -8 21 35 -18 38 -13 12 16 -18 20 -20 25 -6 20 21
-8 23 11 2 19 -8 4 -15 10 -15 15 0 6 10 5 23 -1 21 -10 21 -10 2 4 -11 8 -29
22 -40 31 -20 16 -19 16 5 10 22 -6 20 -2 -15 29 -38 34 -39 35 -15 36 l25 0
-30 26 c-29 24 -29 25 -5 18 14 -4 32 -9 40 -12 8 -3 -3 14 -25 37 -42 44 -41
50 6 25 39 -20 45 -14 19 18 -10 14 -17 28 -14 31 3 3 -2 16 -11 30 -10 16
-12 26 -5 29 7 2 6 16 -5 42 -9 21 -14 40 -12 42 2 2 16 -10 32 -26 35 -36 41
-37 49 -5 3 13 11 37 18 52 l12 28 5 -39 6 -39 28 39 29 39 -7 -35 c-4 -19 -9
-44 -11 -55 -6 -22 3 -14 79 75 20 24 37 40 37 36 0 -4 -9 -44 -20 -88 -25
-94 -22 -115 8 -67 20 33 62 78 62 67 0 -2 -11 -33 -25 -68 -30 -76 -31 -83
-5 -50 24 30 25 17 5 -40 -20 -55 -19 -56 10 -23 l24 28 -25 -85 c-15 -47 -35
-107 -45 -133 -26 -65 -24 -68 17 -22 33 37 35 38 30 13 -3 -14 -9 -34 -13
-45 -5 -14 -1 -13 22 7 l27 25 -26 -53 -27 -53 28 18 28 18 -23 -32 c-23 -32
-18 -45 6 -21 15 15 15 9 -2 -79 -7 -40 -10 -73 -5 -73 5 0 9 4 9 8 0 5 7 17
16 28 14 18 15 18 8 -6 -4 -14 -9 -32 -12 -40 -4 -12 -1 -11 15 3 24 20 33 14
33 -25 0 -15 5 -28 10 -28 6 0 10 -133 10 -378 l0 -379 23 -21 c12 -12 52 -34
87 -51 36 -16 74 -39 85 -51 74 -84 343 -117 573 -72 285 57 492 176 492 283
0 30 -10 50 -55 104 -56 69 -62 85 -45 129 12 33 -9 115 -54 203 -50 102 -53
113 -22 113 14 0 85 -26 158 -59 287 -127 418 -154 753 -155 189 0 243 3 300
17 178 45 259 113 295 245 15 58 -3 86 -76 118 -30 13 -57 31 -61 40 -3 8 4
35 16 58 28 56 27 70 -9 138 -27 51 -30 65 -28 141 2 77 -1 91 -30 149 -59
120 -206 269 -324 329 -62 31 -166 62 -268 79 -133 22 -160 31 -160 52 0 14 5
18 19 13 26 -8 51 4 51 26 0 22 4 23 31 8 19 -10 20 -9 9 12 -11 19 -10 21 4
16 14 -6 14 -2 -4 23 -11 16 -25 32 -30 35 -6 4 -10 11 -10 16 0 6 14 1 31
-11 38 -28 47 -21 14 10 -30 28 -33 45 -6 30 31 -16 34 -12 12 19 -27 38 -27
49 1 25 15 -14 20 -15 16 -4 -23 58 -23 56 7 30 l29 -25 -28 48 c-26 46 -26
48 -6 37 21 -11 21 -11 6 19 -10 19 -12 31 -5 33 7 2 7 12 0 31 l-11 27 27
-17 26 -17 -13 24 -13 24 27 -17 c30 -20 32 -16 9 21 -10 17 -11 22 -3 15 22
-20 35 -15 17 5 -19 21 -23 42 -5 24 24 -24 29 -11 7 20 -19 26 -20 30 -6 25
20 -8 22 3 5 23 -8 8 -3 7 14 -3 26 -16 27 -16 21 0 -5 13 -2 15 11 10 12 -5
9 4 -11 30 -27 35 -18 37 20 5 9 -8 17 -10 17 -5 0 6 -7 16 -15 23 -20 17 -19
31 2 23 17 -7 17 -6 0 20 -22 33 -22 43 0 26 15 -13 15 -12 0 18 -24 46 -21
51 13 18 35 -34 38 -25 9 30 -12 22 -15 34 -8 27 22 -21 30 -13 13 13 -19 29
-13 31 23 8 29 -19 27 -8 -6 31 -15 18 -15 19 2 13 20 -7 22 3 5 22 -11 11 -9
11 9 2 32 -17 35 -14 16 17 l-18 27 28 -18 c33 -21 34 -15 5 30 l-21 35 22
-12 c31 -16 39 -4 19 31 -19 32 -17 34 13 19 23 -13 25 -1 4 26 -21 28 -18 40
5 19 23 -21 24 -17 10 21 l-11 27 26 -17 26 -17 -21 41 -21 41 36 -15 35 -15
-17 26 c-17 26 -17 26 5 21 22 -6 31 6 12 17 -5 3 -10 11 -10 17 0 7 7 5 17
-4 36 -31 49 -34 31 -8 -10 14 -23 34 -29 45 -12 20 -12 20 10 1 11 -11 21
-14 21 -9 0 6 -7 16 -15 23 -19 16 -19 34 0 26 13 -5 13 -1 -1 26 l-16 31 39
-24 38 -23 -27 36 c-34 44 -34 48 -5 40 l22 -5 -20 23 -20 23 20 -5 c11 -3 29
-9 40 -13 15 -6 12 1 -12 26 -36 38 -41 52 -18 43 20 -8 19 6 -1 35 -16 22
-16 23 5 16 17 -5 20 -3 14 12 -7 17 -6 17 20 0 36 -23 34 -11 -5 42 -27 37
-28 42 -10 32 26 -14 28 -5 5 21 -18 20 -4 25 28 8 26 -14 24 -2 -6 43 -21 30
-23 37 -10 37 13 0 14 4 5 20 -13 25 -7 25 28 3 l27 -18 -25 39 c-19 32 -21
38 -7 33 16 -6 16 -4 2 23 -17 32 -14 36 16 20 23 -13 26 2 4 20 -23 19 -18
33 11 26 23 -6 24 -5 14 14 -6 11 -22 27 -36 36 -31 21 -26 28 12 14 27 -9 27
-9 9 5 -11 8 -29 21 -40 30 -19 16 -19 16 5 9 25 -6 25 -6 -5 26 l-30 33 28
-7 c35 -8 34 -2 -5 34 -26 23 -29 29 -15 30 15 0 16 3 6 21 -10 19 -9 20 13
14 18 -5 15 1 -17 29 -38 34 -39 35 -15 36 24 1 24 2 -14 35 -27 24 -34 35
-23 35 27 0 20 13 -20 39 -25 16 -32 25 -23 31 9 5 -4 19 -41 44 -46 31 -50
36 -29 36 l25 0 -30 25 c-25 20 -27 24 -11 25 18 0 18 1 1 20 -18 20 -17 20
10 20 24 0 26 2 14 17 -13 15 -11 15 21 -1 l35 -17 -40 35 c-40 35 -41 46 -4
26 32 -18 21 -2 -18 26 l-38 26 35 -6 c32 -5 33 -4 15 9 -11 8 -29 21 -40 30
-19 16 -19 16 -1 10 20 -6 20 -6 0 16 l-19 22 30 -7 30 -7 -25 21 c-27 21 -17
26 27 10 28 -10 28 -10 7 7 -12 10 -30 24 -40 31 -17 11 -17 12 6 6 24 -7 23
-6 -5 21 -28 25 -25 27 23 8 9 -4 -5 14 -33 40 -43 40 -47 46 -27 47 27 0 29
16 2 32 -30 19 -24 28 12 17 47 -13 45 -4 -6 26 -45 26 -61 43 -31 31 18 -7
20 10 3 18 -7 3 3 3 22 0 l35 -5 -40 26 c-30 19 -35 25 -20 25 l20 1 -20 11
c-19 12 -18 13 10 18 l30 6 -45 21 c-37 17 -41 21 -21 22 l24 1 -23 25 c-22
23 -22 25 -4 25 18 1 17 2 -3 19 -30 25 -29 31 5 31 l27 1 -30 16 -30 17 30 6
30 5 -45 19 -45 19 30 5 30 4 -40 18 -40 19 30 1 30 2 -30 13 -30 14 35 1 c37
1 36 2 -17 37 -15 10 -13 11 17 7 l35 -6 -33 23 c-23 15 -30 24 -21 30 7 4 19
5 27 1 27 -10 3 17 -30 34 -28 14 -29 16 -12 29 16 11 15 13 -16 20 -30 7 -32
8 -14 18 17 10 17 12 -11 18 -31 6 -30 7 23 25 13 5 8 10 -23 24 -38 16 -39
18 -15 22 23 5 23 5 3 7 -36 2 -27 21 10 22 32 1 32 1 -18 25 -46 23 -47 24
-16 19 40 -6 35 2 -17 26 l-37 17 35 1 35 2 -40 18 c-32 15 -35 20 -17 20 12
1 22 5 22 9 0 5 -10 14 -22 20 l-23 11 23 0 c32 1 19 18 -20 26 l-32 7 30 13
c16 8 25 14 19 14 -5 1 -21 11 -35 22 l-25 20 33 -4 c17 -2 32 -2 32 -1 0 2
-15 11 -32 21 l-33 17 30 6 30 6 -29 15 c-21 12 -25 18 -16 24 9 6 4 12 -16
21 -26 11 -27 12 -6 13 30 1 28 15 -5 31 l-28 12 25 10 25 10 -35 13 -35 13
30 4 30 4 -45 21 c-41 20 -42 22 -17 22 38 1 34 14 -10 31 l-38 14 30 6 30 7
-24 10 -25 10 25 7 c23 7 22 8 -16 21 -22 7 -33 13 -25 14 11 1 8 7 -10 21
l-25 20 30 0 30 1 -25 14 c-20 11 -21 14 -7 15 28 0 11 18 -26 26 -28 6 -30 8
-12 15 19 8 19 8 -2 15 -37 11 -27 27 12 21 44 -7 38 4 -15 28 -40 18 -41 19
-18 28 22 8 21 9 -17 26 -31 13 -36 19 -22 24 24 9 21 23 -5 32 -22 7 -21 8 7
14 l30 7 -35 8 c-48 11 -57 18 -34 27 18 7 17 8 -3 8 -30 1 -38 19 -11 23 21
4 19 6 -12 20 l-35 16 25 10 c24 9 24 10 -15 17 -37 8 -38 9 -17 18 32 14 27
27 -10 28 l-33 1 30 11 30 12 -40 5 -40 6 30 14 30 14 -43 4 c-23 2 -40 7 -37
13 4 5 -5 9 -19 9 -29 0 -35 16 -8 23 11 3 7 7 -16 12 -26 6 -30 10 -21 21 9
11 5 15 -20 20 -36 7 -42 24 -8 25 17 0 14 3 -13 13 l-34 13 34 8 35 8 -55 12
c-30 7 -45 13 -33 14 34 2 38 21 4 21 -36 0 -50 17 -19 23 20 3 19 5 -10 12
-30 7 -31 9 -15 21 16 12 14 13 -17 14 -26 0 -31 3 -20 10 12 7 7 11 -19 16
-34 7 -34 7 -10 17 22 10 21 11 -21 16 -41 5 -43 7 -25 18 18 11 17 12 -15 13
-33 1 -34 1 -16 15 19 14 18 15 -14 15 -32 0 -33 1 -14 15 18 14 18 14 -5 15
-19 0 -21 3 -12 14 9 11 5 15 -21 20 l-33 7 25 19 25 20 -30 0 -30 1 25 14
c24 14 22 14 -34 15 -54 0 -58 1 -41 14 18 13 16 15 -25 27 -27 7 -38 14 -27
16 33 8 17 23 -24 23 -36 0 -40 2 -29 15 11 13 7 15 -24 15 -35 0 -49 13 -23
23 6 3 -7 6 -30 6 -47 1 -52 7 -25 28 15 13 13 14 -20 11 -21 -2 -38 -2 -38 0
0 2 10 13 23 23 l22 20 -22 -5 c-13 -4 -33 -9 -44 -12 -14 -4 -19 -2 -15 5 5
7 -2 11 -16 11 -23 1 -23 1 -3 17 19 15 18 15 -18 10 -35 -5 -37 -4 -25 10 11
14 10 16 -14 11 -34 -6 -35 -2 -5 24 l22 19 -39 -6 c-34 -6 -38 -4 -28 8 10
12 8 13 -14 9 -19 -3 -25 -1 -20 7 4 7 0 11 -11 11 -14 0 -12 5 12 25 33 27
24 33 -15 10 -37 -21 -49 -17 -20 7 l25 21 -27 -6 c-14 -4 -34 -10 -45 -14
-16 -6 -17 -5 -3 12 14 17 13 17 -10 10 l-25 -8 20 23 20 22 -35 -7 -35 -7 25
26 25 27 -29 -11 c-36 -13 -44 -6 -21 20 22 24 19 25 -31 4 l-39 -16 19 21 19
21 -34 -6 -34 -6 25 22 25 21 -40 -6 -39 -7 24 21 25 21 -40 -6 -40 -7 30 32
30 33 -30 -8 c-27 -7 -29 -6 -16 9 12 15 10 17 -15 18 l-29 1 29 12 28 13 -33
7 -34 7 25 14 25 14 -32 1 c-38 0 -43 14 -10 25 18 7 14 9 -23 14 l-45 7 34 8
c25 6 30 11 20 17 -8 5 -24 9 -37 9 -13 0 -20 4 -17 10 3 6 17 10 31 10 14 0
22 4 19 10 -3 6 -20 10 -38 10 -35 0 -26 16 13 22 l25 5 -25 11 c-24 10 -23
11 15 12 50 1 28 19 -25 21 l-35 1 28 12 28 12 -28 13 -28 13 35 18 35 18 -27
7 c-16 4 -28 10 -28 14 0 4 12 14 28 21 l27 14 -40 6 c-39 6 -39 7 -15 18 l25
11 -30 1 c-29 1 -29 2 -7 12 24 12 29 28 10 29 -7 0 -4 4 7 8 18 8 16 10 -15
19 -19 6 -28 11 -20 12 8 0 29 7 45 14 l30 13 -45 13 -45 12 33 16 c42 21 41
32 -5 32 l-38 0 25 20 25 20 -24 0 c-23 0 -23 1 -7 25 15 23 15 25 -1 25 -13
0 -10 6 12 20 l30 20 -25 1 -25 0 23 11 c24 12 30 28 10 28 -8 0 -4 8 7 16 16
13 17 17 6 22 -9 3 -5 9 15 18 29 12 29 12 4 14 l-25 1 25 14 c15 9 19 15 10
15 -10 0 -7 7 10 20 20 16 21 19 5 13 -18 -6 -18 -5 -6 10 7 9 10 17 5 17 -5
0 0 7 10 15 20 15 20 15 0 15 -16 0 -17 2 -4 10 12 8 12 10 1 10 -10 0 -11 4
-3 13 7 8 6 18 -4 31 -21 30 -17 95 11 155 61 130 193 270 393 418 170 126
225 175 291 264 106 140 184 301 270 553 155 455 188 669 195 1264 5 434 1
475 -53 542 -43 54 -140 98 -244 112 -149 20 -358 -17 -502 -89 -139 -70 -371
-250 -520 -405 -132 -136 -229 -263 -336 -439 -101 -168 -139 -248 -260 -548
-72 -179 -106 -252 -129 -276 -27 -28 -37 -54 -65 -168 -18 -75 -38 -144 -43
-153 -12 -22 -14 -11 -42 181 -63 439 -161 810 -320 1220 -129 332 -160 457
-160 648 0 105 -15 141 -87 208 -112 105 -254 151 -361 116z"/>
</g>
</svg>
