<?xml version="1.0" encoding="utf-8"?>
<!-- Generator: Adobe Illustrator 20.0.0, SVG Export Plug-In . SVG Version: 6.00 Build 0)  -->
<!DOCTYPE svg PUBLIC "-//W3C//DTD SVG 1.1//EN" "http://www.w3.org/Graphics/SVG/1.1/DTD/svg11.dtd">
<svg version="1.1" id="Layer_1" xmlns="http://www.w3.org/2000/svg" xmlns:xlink="http://www.w3.org/1999/xlink" x="0px" y="0px"
	 viewBox="0 0 1586.115 1675.733" enable-background="new 0 0 1586.115 1675.733" xml:space="preserve">
<g>
	<path fill="#3C2415" d="M1101.629,44.477c41.469-16.631,44.582,1.581,78.07,16.023c5.941,2.738,12.682,3.163,18.465,6.316
		c3.914,1.75,7.157,4.646,10.854,6.732c15.242-0.949,31.552-1.483,45.47,5.872c-5.021,3.302-11.397,5.961-13.582,12.05
		c14.743-3.43,54.042-12.526,68.205-12.91c27.078,0.106,52.613,12.089,66.169,36.445c1.799,2.886,0.998,6.455,1.76,9.657
		c-1.858-0.376-3.717-0.712-5.565-1.018c-11.517-25.354-36.411-37.73-62.324-37.73c-16.337,0.554-69.789,13.321-82.973,16.557
		c-10.834-12.247-21.381-26.709-37.78-31.592c-36.017-7.239-42.701-39.742-87.747-17.783c-11.416-11.462-40.277-1.202-48.218,14.61
		l2.669-2.471c-1.545,30.394,5.49,69.368,27.509,90.752c-0.87-9.351-1.621-18.712-2.155-28.083
		c6.86,10.253,20.896,29.305,33.055,27.243c-6.642,12.316-12.554,25.009-19.088,37.374c-2.372-3.42-4.161-8.59-8.649-9.499
		c-4.488,10.854-7.018,22.498-10.29,33.786c-2.372-4.982-4.102-10.666-8.629-14.185c-6.068,7.755-15.681,30.852-21.381,41.071
		c0.894-6.505,2.053-25.91-0.86-33.292c-1.147-2.708-4.913-1.987-6.672-4.152c-10.238-9.737-21.55-33.573-13.315-45.52
		c7.404-10.784,18.06-18.801,28.884-25.878c-1.809-5.041-3.232-10.211-4.587-15.381c-13.918,4.448-27.025,11.061-40.093,17.516
		c-0.86,2.412-1.7,4.824-2.481,7.255c-3.341,1.275-6.603,2.738-9.717,4.488c-1.147-2.214-2.412-4.369-3.796-6.425
		c2.521-1.275,5.061-2.54,7.641-3.727c7.319-21.006,20.294-43.728,40.656-52.686C1041.989,43.153,1085.775,35.54,1101.629,44.477z"
		/>
	<path fill="#3C2415" d="M1126.499,72.441c16.732-1.801,44.229-1.975,58.172,7.522c-12.929,0.524-26.027,0.346-38.699,3.311
		c-3.06,0.587-14.173,8.202-15.766,1.058C1128.911,80.389,1127.804,76.385,1126.499,72.441z"/>
	<path fill="#3C2415" d="M1078.706,84.303c0.959,1.483,1.354,3.242,1.898,4.923c-0.217,0.524-0.652,1.572-0.87,2.096
		c4.885,5.034,13.053-1.452,32.313-0.949c3.717,6.178,7.641,12.237,11.18,18.524c0.148,4.073-0.435,8.135-0.652,12.198
		c-24.995-20.531-14.876,9.855-23.852,8.926c-8.324-4.696-21.596-21.865-24.544-33.915
		C1073.052,91.856,1075.13,83.539,1078.706,84.303z"/>
	<path fill="#3C2415" d="M1322.208,90.135c10.754,5.277,37.726,18.676,42.554,29.388c-10.172,0.761-20.333,1.502-30.505,2.234
		c1.72,4.952,2.847,10.142,2.62,15.41c-21.331-22.459-25.161-20.608-38.57-25.562c-10.132-3.242-20.402-6.801-31.167-6.811
		c29.045-10.276,50.571-13.453,65.437,13.028C1329.493,108.481,1326.933,98.814,1322.208,90.135z"/>
	<path fill="#3C2415" d="M1154.829,95.71c-8.022,21.031,14.828,6.961-5.773,45.628c-1.74-3.46-3.47-6.919-5.031-10.458
		c-5.812,4.962-11.644,9.914-17.397,14.936C1128.589,127.35,1144.443,105.858,1154.829,95.71z"/>
	<path fill="#3C2415" d="M1239.917,119.641c33.695-8.903,36.829,0.067,47.21,6.445c20.57,13.206,41.941,25.107,63.292,36.989
		c0,0.158,0,0.484,0,0.643c-14.254,6.307-28.498,12.613-42.673,19.078c2.986-13.72-2.568-25.305-18.9-31.928
		c-17.09-7.264-22.396-25.852-35.971-30.277C1248.695,119.068,1244.217,120.086,1239.917,119.641z"/>
	<path fill="#3C2415" d="M1464.184,123.694c52.74,1.996,56.576,0.511,58.034,40.498c-2.53,5.545-5.753,10.755-8.362,16.251
		c10.293,53.33,6.758,56.068-10.567,107.181c12.178,50.186,8.114,53.501-41.496,70.014c-40.167,55.753-35.879,4.145-69.955,5.022
		c-1.463,5.466-3.825,11.506-1.7,17.081c9.028,8.934,41.924,26.24,46.547,60.495c0.87,4.073,0.218,8.382,1.018,12.376
		c22.993,20.561,45.449,48.427,49.216,79.167c2.353,2.738,4.676,5.506,6.929,8.343c-1.572,2.125-2.877,4.438-4.013,6.82
		c-7.858-10.547-17.575-19.463-26.462-29.111c-2.165-24.129-14.382-47.319-33.618-62.166c3.244-30.081-15.841-48.608-38.333-65.111
		c-5.706-4.562-15.24-8.411-4.913-34.538c8.402-1.661,17.19,0.435,24.445,4.814c24.356,13.217,16.425,29.992,46.399-9.509
		c51.746-15.888,48.322-18.392,38.402-64.222c15.544-46.974,22.803-54.286,10.191-107.349c2.272-3.542-1.85-23.028-7.503-28.755
		c-5.546-2.481-11.585-3.756-17.13-6.267c-0.741-4.023-1.848-7.967-2.669-11.971c27.15,11.508,23.76,3.839,34.271,11.931
		c-1.058-2.916-1.522-6.148-3.371-8.699c-6.144-3.883-32.543-4.645-46.775-5.071
		C1463.284,128.518,1463.798,126.116,1464.184,123.694 M1508.794,173.79c2.353-3.559,4.191-7.453,5.98-11.318
		c0.208-2.214-0.198-4.448-0.336-6.643C1512.402,161.76,1510.514,167.76,1508.794,173.79z"/>
	<path fill="#3C2415" d="M1187.686,149.829c33.488,20.284,38.054,46.302,51.49,62.749c10.507,13.853,21.767,52.705,31.7,80.047
		c6.115,16.374,7.094,24.572,44.749,58.904c10.715,9.549,21.707,18.801,33.084,27.559c-22.93-33.153-24.69-38.567-34.804-45.45
		c-9.719-7.035-20.662-33.929-24.9-45.085c26.406,27.547,21.229,22.661,61.711,51.609c-16.943-34.852-17.365-16.691-54.959-95.27
		c38.49,9.14,51.216,14.551,86.67,47.852c-5.022,1.374-10.073,2.619-15.065,4.043c10.933,6.376,23.467,9.351,35.862,11.308
		c14.033,2.569,25.406-2.56,30.643-18.475c6.08,28.98,21.756,36.846,47.042,29.981c-4.092,3.499-9.183,6.712-11.15,11.921
		c0.85,3.638,5.13,4.715,6.87,7.839c-4.3,1.087-8.857,0.642-13.018,2.244c-17.776,6.44-31.917,22.594-43.78,20.58
		c-12.182-1.801-28.469-12.501-34.211-10.626c-7.541,5.934-5.572,44.259-5.229,54.179c-4.023-8.837-7.196-18.05-11.546-26.748
		c2.797,10.527,5.486,21.084,8.343,31.602c-17.072-13.177-10.423-10.324-26.027-28.241
		c-103.646-56.642-54.796-52.991-125.181-110.354c5.526,9.103,20.432,32.804,17.674,39.381c-4.814,3.539-11.555,4.171-16.992,1.759
		c-12.081-5.184-12.386-17.39-28.844-26.511c-32.201-17.974-69.962-10.652-100.568-73.454c12.247-0.682,24.484-1.661,36.732-2.422
		c7.288,7.473,23.979,23.253,33.786,26.254c9.879-0.291,1.09-41.509-0.929-51.055
		C1220.596,232.111,1232.318,233.351,1187.686,149.829z"/>
	<path fill="#3C2415" d="M1354.432,202.99c1.137-13.157,6.277-26.244,15.312-35.991c-4.403,17.489-3.435,20.607,36.989,7.078
		c-5.697,5.749-15.403,13.971-17.417,19.839c24.347-6.104,70.683-16.071,95.062-8.125c-18.219,3.547-63.702,12.117-74.245,18.663
		c-0.099,0.356-0.297,1.058-0.395,1.414c7.795,5.546,39.037,7.275,48.89,7.364c-15.944,2.096-32.274,0.84-48.109,3.964
		c16.899,5.155,39.18,10.494,42.248,12.188c-62.018,6.535-69.775,6.66-91.909-13.957
		C1357.586,212.064,1353.523,208.16,1354.432,202.99z"/>
	<path fill="#3C2415" d="M969.36,199.669c-20.697,58.343-19.257,58.229,7.75,97.336c2.728-14.284,5.13-28.646,8.066-42.88
		c-0.228,10.579-0.954,50.203,5.881,58.34c5.822,3.796,12.623,5.733,19.127,8.066c13.414-10.705,25.364-24.761,28.696-42.05
		c1.868,13.414-0.464,28.607-10.508,38.462c-1.102,26.215,8.315,52.489,33.895,58.597c6.623,1.908,13.532,1.433,20.323,1.582
		c-17.215,6.198-34.322,12.102-47.753,11.773c1.058,8.886,2.066,18.218,7.157,25.869c5.387,8.728,15.025,14.195,25.038,15.717
		c13.99,2.783,30.1-5.419,72.495,13.72c-2.016-6.84-6.672-12.929-13.176-16.013c-27.007-13.268-48.221,9.72-67.602-37.552
		c13.862,14.263,78.243,0.581,91.346,11.783c7.631,6.771,10.992,17.091,18.85,23.704c11.595,9.618,25.206,16.33,38.106,23.971
		c-8.076-8.877-10.27-21.193-12.237-32.61c14.227,19.155,48.515,36.377,70.212,45.945c2.449-18.682-42.525-9.017-21.539-71.358
		c0.927,52.981,7.41,36.4,38.066,55.918c18.32,11.283,34.996,48.027,42.594,70.222c9.559,27.503,36.466,26.385,42.86,63.174
		c11.271,63.008,22.876,49.116,33.332,25.038c7.728,93.31,22.177,62.445,63.075,153.649c-12.297-14.956-29.447-24.86-46.676-33.104
		c65.719,47.263,59.173,149.56,34.973,216.784c4.964-65.139-18.497-127.441-46.488-160.589c1.621,19.691,2.916,39.411,4.498,59.101
		c15.143,6.474,18.329,14.667,28.854,50.976c-6.277-9.934-15.499-17.447-24.465-24.841c-2.758,11.694-5.318,23.437-8.175,35.111
		c27.112,4.028,34.708,38.704,35.289,66.228c-4.499-15.797-25.969-35.962-38.215-46.854c0.297,9.667,0.86,19.315,1.077,28.992
		c17.715,24.306,31.447,57.187,31.226,88.074c7.957-11.911,12.712-25.562,17.377-39.005c1.236-3.163,1.503-6.751,3.519-9.569
		c2.269,32.19-3.56,59.524-27.282,82.598c-7.582,20.896-18.237,40.765-31.849,58.36c5.437-11.328,6.465-24.425,3.737-36.623
		c-5.368,9.074-13.987,15.46-22.972,20.61c7.908-1.186,15.885-1.927,23.812-3.054c-8.412,8.698-17.239,16.982-25.839,25.493
		c16.381-4.396,42.764-11.76,54.436-23.872c21.334-21.464,51.183-67.474,65.675-94.341c11.043-19.213,13.886-76.513,14.708-98.868
		c0.494-61.732-5.625-41.465,2.026-76.014c-2.067-4.81-11.234-24.823-16.666-30.159c-6.198,12.297-11.16,25.177-16.745,37.75
		c0.234-11.081,3.43-106.503,4.27-117.837c2.886,20.027,6.129,40.004,8.936,60.05c10.893-17.18,20.58-35.16,31.295-52.469
		c-4.181,21.746-14.903,79.689-10.755,101.606c3.578-11.793,7.839-23.358,12.593-34.715c18.82-59.131,8.115-59.07,11.387-76.746
		c3.833-27.032,5.868-18.824,3.341-49.039c2.451,1.7,4.972,3.341,7.661,4.695c1.137,13.997,0.099,28.063,1.265,42.05
		c0.919,31.597,4.562,34.696-10.102,62.887c-5.946,8.604-15.941,57.535-17.071,84.416c-0.442,12.667,6.517,21.891-4.616,91.019
		c-7.418,43.327-12.289,50.157-20.659,64.943c-14.593,25.128-42.057,67.275-62.927,87.392
		c-17.194,16.97-64.457,26.796-88.291,31.058c8.264-6.307,16.537-12.613,24.88-18.821c-10.903-1.176-21.766-2.669-32.659-3.855
		c-27.519,132.479-26.938,106.331-37.978,158.295c-3.588,1.641-7.137,3.381-10.458,5.526c-5.339-38.799-5.999-9.73-0.396-128.354
		c-26.474,117.671-42.099,179.35-42.099,179.35c2.574,6.726,18.678,3.056,25.443,1.562c-5.419,15.769-21.228,61.298-19.661,75.421
		c1.315,15.397-11.729,19.522-28.498,15.618c-16.677-5.042-7.083-61.982-4.26-85.197c0,0,2.736-139.843,2.738-139.939
		c-15.251-4.374-24.902-28.996-28.617-44.412c9.136,12.334,18.058,24.277,24.811,26.887c8.238-20.49,20.337-111.861,24.672-171.304
		c2.478-38.466,7.723-81.553-37.987-166.688c17.77-33.789,37.315-82.836,37.315-120.941c-0.534-23.691-6.947-37.841-43.147-71.368
		c-82.784-75.951-136.132-87.184-127.039-57.5c-21.207-14.409-20.636-50.03-23.13-72.564c-1.11-5.818,0.961-19.26-38.64-1.73
		c4.853-10.409,9.43-20.936,14.412-31.275c-95.098-26.099-111.935,82.632-132.832,133.049
		c-11.791,28.598-46.234,39.178-52.666,42.317c-45.992,30.341-45.146,21.755-61.958,32.511c-1.661-1.898-3.391-3.727-5.101-5.565
		c41.546-26.204,31.216-17.517,36.03-25.335c-2.59-12.376,2.54-24.613,7.868-35.526c1.36-17.395,5.661-25.784,28.725-32.689
		c3.528-10-7.548-12.863,7.087-37.256c-7.768-40.035,33.576-56.348,20.59-70.281c-1.384,0.306-2.797,0.593-4.161,0.909
		c0.741-0.998,1.512-1.977,2.293-2.956c-0.554-2.016-0.494-4.31,1.048-5.891c10.933-11.288,20.086-24.139,29.743-36.495
		c-3.47-3.855-7.75-6.939-10.992-10.962c0.02-4.329,3.321-7.651,5.901-10.784c-5.881-16.883-10.656-34.439-10.834-52.429
		c-2.096-29.299-5.002-58.795-1.819-88.123c1.771-16.801,10.138-50.718,21.203-62.62c2.757-3.018,1.607-3.31,9.944-30.188
		c2.214,0.959,4.497,1.73,6.86,2.273c-12.811,45.476-9.706,27.005-14.936,37.691c-26.485,46.395-9.762,85.013-7.681,115.514
		c-0.366,10.685-5.16,20.639-6.02,31.236c0.82,13.157,9.885,23.516,16.547,34.221c22.908-21.44,89.38-38.24,111.263-5.269
		c-3.242-11.743,0.168-24.139,5.486-34.715c-16.013-13.532-28.992-33.381-27.648-55.088c1.987-2.432,5.466-3.608,7.72-5.99
		c-7.249,3.428-26.331,13.244-23.031,20.531c4.32,13.137,10.596,25.523,16.409,38.037c-10.98-8.408-20.929-11.56-27.183,0.791
		c-3.331-8.353-6.821-17.041-13.394-23.427c-4.483-4.422-14.535-4.981-7.186-19.76c-0.376-6.623-0.919-14.017-5.17-19.414
		c-9.835-6.86-17.763-15.974-26.392-24.198c-0.069-0.277-0.198-0.83-0.257-1.107c7.07,4.802,27.37,16.833,27.272,8.481
		c-0.294-12.117-15.756-16.866-22.241-24.85c-2.708-3.242-2.698-7.68-3.054-11.664c-0.514-11.387-1.077-22.794-0.672-34.192
		c1.977,6.139,5.802,21.752,10.251,22.676C936.831,252.909,955.62,208.51,969.36,199.669z"/>
	<path fill="#3C2415" d="M1490.704,240.424c6.148-9.885,11.575-20.244,18.04-29.902c-3.638,13.967-6.929,28.023-10.508,42.01
		c-2.62-3.875-4.982-7.908-7.73-11.684c-70.81,10.996-62.791,13.835-75.065,20.007c-11.897,6.421-20.821,12.333-22.814,25.869
		C1366.974,252.275,1441.408,232.629,1490.704,240.424z"/>
	<path fill="#3C2415" d="M1326.379,214.614c3.954-0.593,7.948-0.969,11.901-1.68c6.079,10.181,16.251,18.554,28.29,20.086
		c3.677,0.731,7.394,0.089,11.091-0.178C1373.871,235.15,1332.256,249.225,1326.379,214.614z"/>
	<path fill="#3C2415" d="M1054.577,264.888c5.229,16.706,24.714,36.304,41.981,37.542c16.39,0.632,43.667,9.942,58.983,15.658
		c-6.623,1.097-13.384,1.068-20.017,2.076c29.422,7.393,41.973,60.555,45.411,90.406c-8.265-23.659-38.875-47.479-59.546-61.474
		c3.391,7.71,6.85,15.391,10.191,23.13C1079.081,337.963,1045.805,359.042,1054.577,264.888z"/>
	<path fill="#3C2415" d="M1150.924,288.474c9.48,4.319,32.641,19.664,40.923,38.63c5.75,12.559,3.932,43.786-0.217,58.37
		C1167.519,302.365,1175.053,307.371,1150.924,288.474z"/>
	<path fill="#3C2415" d="M1238.039,343.137c2.513,1.646,56.684,37.305,59.536,39.618c-7.048-0.435-14.125-0.119-21.144-0.85
		c4.142,4.992,9.054,9.252,13.443,14.027C1254.28,388.462,1247.234,377.797,1238.039,343.137z"/>
	<path fill="#3C2415" d="M1272.922,399.984c17.432-8.655,62.421,9.348,80.176,17.091c-9.559-0.267-19.345,2.135-27.094,7.868
		c28.258,1.406,63.77,20.03,68.996,23.694c-12.495-3.944-26.363-4.962-38.778-0.128c34.676,20.402,68.077,43.177,98.561,69.49
		c36.921,30.845,55.773,98.638,65.24,145.702c-0.178-0.148-0.544-0.445-0.722-0.593c-15.659-55.239-76.461-96.635-126.535-124.687
		c-10.491-6.232-16.652-6.705-26.294-28.023c-19.563-43.883-5.683-44.15-63.451-88.775
		C1293.157,414.179,1283.282,406.726,1272.922,399.984z"/>
	<path fill="#3C2415" d="M1397.006,425.635c21.266,8.816,41.256,43.754,50.956,64.538
		C1430.704,468.901,1413.929,447.184,1397.006,425.635z"/>
	<path fill="#3C2415" d="M954.236,540.823c-4.808,11.44-23.388,56.306-10.982,54.703c24.601-3.856,37.798-37.024,100.192-21.114
		c-47.109,14.864-35.43,77.542-38.086,90.347c-1.325,6.544-5.723,12.069-6.346,18.811c-2.817,21.934-1.068,44.076-1.117,66.11
		c0.702-1.166,1.423-2.323,2.145-3.47c4.464,19.773,18.691,60.142,37.819,54.297c20.661-6.505,40.301-29.941,52.083-44.926
		c-9.151,15.255-29.082,47.068-29.002,58.419c7.878,2.511,15.519,5.753,22.755,9.776c21.302-20.195,41.655-42.119,55.266-68.363
		c-14.964,74.473-6.632,75.179,2.066,80.354c15.351,8.422,32.155,13.651,48.673,19.256c-63.154,8.98-70.819,12.62-80.848-12.435
		c-24.9,7.522-49.8,15.035-74.66,22.696c15.707-12.267,31.424-24.623,45.984-38.264c-33.566,16.37-29.522,12.23-68.709,7.433
		c-0.781-1.542-1.522-3.074-2.214-4.626c4.934,20.999,7.261,35.544-35.091,58.656c-4.324-28.491-32.838-118.518-34.725-129.61
		c4.952,14.061,21.117,60.624,29.832,69.065c5.803-4.861,5.437-31.298,5.852-50.966c3.677,9.321,5.585,19.542,11.091,28.023
		c1.837-12.635-2.24-58.52-3.351-71.25c-0.979-24.307,6.208-48.01,7.147-72.189c-2.547-11.86,3.07-39.299,6.02-53.477
		c-39.206,24.047-41.836,35.15-27.964,70.162c-8.203,16.194-1.542,57.489,1.74,75.411c-34.155-27.762-38.711-81.051-31.829-124.736
		c-17.473,11.962-23.123,38.5-23.387,59.536C892.012,654.244,927.909,569.943,954.236,540.823z"/>
	<path fill="#3C2415" d="M1457.492,611.351c17.977,15.112,43.78,41.739,52.34,64.133c7.949,20.273-3.335,59.493-11.714,79.662
		C1489.768,672.62,1494.975,678.2,1457.492,611.351z"/>
	<path fill="#3C2415" d="M308.887,716.881c40.08-4.071,81.973-3.16,115.099,20.175c31.733,22.089,71.63,77.738,47.111,143.162
		c-21.178,57.502-66.27,94.756-138.279,177.235c-115.433,132.462-248.844,303.758-190.48,418.038
		c32.629,65.969,93.974,54.377,154.331,12.257c2.521-1.295,1.255-4.468,1.552-6.672c1.679-62.46,9.046-183.657,47.912-233.38
		c5.222-5.776,31.634-58.557,62.403-70.301c32.372-73.045,77.498-157.366,126.783-220.174c4.587-1.591,9.213-3.183,13.335-5.842
		c-10.337,14.294-73.559,88.314-113.053,219.472c-0.772,2.797,1.324,2.73-22.132,12.593c-22.133,7.019-43.97,40.208-55.493,60.149
		c-5.861,12.184-42.81,33.911-51.846,207.275c34.559-159.389,123.156-308.714,286.165-300.597
		c12.226,24.288,40.016,79.489,58.518,99.451c4.625,4.767,5.114,8.752,60.287,5.753c-0.873,32.948-5.027,94.339-16.488,125.201
		c-1.676-3.611-10.93-84.538-33.371-95.902c-14.195-7.335-28.953-13.572-44.057-18.781c16.054-19.821,11.494-21.177,8.422-25.602
		c-10.221-12.672-21.312-24.603-32.383-36.524c1.048,4.982,2.382,10.418,0.455,15.341c-1.512,3.43-6.099,2.195-8.303,0.168
		c-12.175-10.012-31.137-29.12-74.017-19.038c-69.512,16.493-118.164,72.326-89.151,91.257
		c39.506,26.536,130.774-38.897,184.45-7.503c-31.105,3.176-99.891,15.313-82.775,41.17c15.752,25.59,50.861,54.477,78.159,68.996
		c28.774,14.84,39.893,12.11,55.75,6.02c9.677-3.984,19.137-10.952,22.31-21.371c6.273,24.462,3.214,35.801-36.831,125.003
		c-3.707,7.75-6.82,15.905-11.951,22.864c3.775,6.829,20.323,10.616,25.819,25.72c-7.805-3.552-32.702-15.464-40.152-11.279
		c-6.297,3.466-19.391,14.872-18.465,21.944c1.166,20.522,6.681,46.977,27.183,48.95c9.239,1.178,50.05,6.985,51.648-1.601
		c1.977-10.883,0.732-22.004,0.148-32.946c5.137,11.207,13.843,35.771,26.551,36.663c43.644,4.557,31.937-0.705,27.756-37.681
		c5.286,12.159,10.985,25.164,17.723,30.178c4.339-1.394,8.708-2.936,12.544-5.466c-0.385-2.422-0.642-4.833-0.89-7.245
		c1.759,0.02,3.539,0.049,5.328,0.089c-2.946-9.321-6.129-18.85-12.297-26.6c-15.287-18.384-36.236-47.221-50.244-51.698
		c-12.205-1.603-24.366,4.458-20.185,14.56c-1.453-3.015-1.74-6.376-2.362-9.598c-12.291-8.633-27.94-4.832-44.847,0.771
		c31.796-43.341,54.448-86.028,79.217-195.917c22.496,96.551,35.008,58.512,80.245,144.664c0.486-37.682,0.103-50.063-10.943-61.187
		c-9.505-9.643-20.945-17.509-31.602-41.684c-12.178-26.568-29.899-67.829-29.447-96.881c3.987-50.082-5.771-100.26-5.881-101.576
		c32.694,101.806,38.201,155.011,52.251,164.009c8.562-9-11.396-103.452-13.888-115.909c7.178,16.063,23.635,54.402,39.015,62.946
		c9.096,5.524,17.646-9.979,13.957-28.261c-7.521-35.903-35.223-56.206-59.141-106.993c16.894,3.959,52.03,11.112,69.204,7.898
		c11.285-3.009,26.251-15.446,33.539-24.178c-24.406-2.066-48.772-4.992-72.881-9.351c-22.523-4.575-33.097-7.098-33.944-17.724
		c-1.135-13.379,12.532-31.414,27.203-34.913c19.83-5.195,66.146,39.467,81.382,27.549c9.914-7.554,9.316-25.509,6.376-37.701
		c7.611,3.895,16.577,4.527,24.831,2.59c15.594-3.414,43.962-24.538,51.401-31.542c19.872-20.447-14.165-27.676-42.584-30.554
		c1.989-1.332,43.355-16.549,57.174-37.78c2.026-2.995,2.649-6.85,5.535-9.252c-4.636-3.479-8.471-7.868-11.862-12.544
		c16.172-6.395,33.628-9.707,51.035-8.689c6.475,0.738,24.422-3.309,45.114,10.063c-4.571,202.448,25.204,211.885,33.776,132.931
		c6.87,17.602,14.79,44.979,23.971,50.679c7.55-7.349,9.642-44.331,12.228-66.663c5.852,38.913,41.671,311.149,63.52,327.058
		c7.7-1.127,14.797,3.391,20.936,7.503c1.295,10.27,3.223,20.462,4.448,30.752c-62.16-19.066-26.703-6.813-68.512-27.954
		c11.701,15.247,36.881,45.813,54.584,54.208c59.635,29.251,63.121,23.314,85.167,19.058
		c-33.334,19.862-33.547,19.098-101.379-7.097c-6.401,1.538-16.032,16.684-12.85,23.872c3.794,9.967,18.597,44.049,26.511,50.63
		c2.165-9.272,1.127-18.929,0.336-28.31c7.819,17.259,14.382,35.121,22.221,52.38c4.844,5.664,11.002,10.073,16.695,14.857
		c72.499,56.79,124.319,34.8,175.386,44.828c24.531-15.264,10.838-48.309-4.023-85.266c3.31,1.836,21.77,35.884,27.895,49.8
		c4.079,10.536,7.31,13.88-4.745,34.686c23.879-19.448,8.592-59.137,4.992-63.737c-5.901-8.135-11.634-16.389-17.743-24.356
		c2.036-1.463,4.003-3.025,5.941-4.616c19.099,26.45,20.626,28.059,21.984,32.768c10.443,31.888,4.227,47.336-3.361,58.044
		c-12.721,17.076-21.506,10.063-44.64,8.125c-60.591-3.383-27.252-0.74-93.935-2.333c-19.058,0.81-38.294,2.857-57.273,0
		c-12.01-1.641-24.188-1.068-36.198-2.57c-21.726-3.66-34.228,3.37-48.92-2.629c-4.537-0.385-10.013-0.277-13.157-4.181
		c-1.305-5.585-0.336-11.703-3.044-16.923c-5.633-12.242-1.605-21.637-1.868-60.722c1.449-31.314-5.488-36.072-16.419-42.515
		c-13.608-7.962-34.662-17.655-32.531-40.547c2.841-34.019,15.533-75.616,11.763-90.861c-8.164-34.174-16.967-50.654-31.869-144.18
		c-2.204,0.277-4.409,0.583-6.583,0.939c-0.059,0.811-0.188,2.422-0.257,3.232c-4.923-0.455-9.806-2.501-14.768-1.315
		c-15.128,2.531-44.756,7.593-55.79,18.287c-20.75,19.44-48.014,52.094-67.167,84.041c-26.244,42.24-70.775,106.282-75.747,124.074
		c-4.593,40.461-22.235,55.728-31.404,69.026c0.217,2.629,0.435,5.298-0.089,7.937c37.132-0.892,33.777-17.436,70.419-2.145
		c7.344,3.292,15.549,4.102,22.824,7.562c4.438,1.977,6.989,6.267,10.31,9.578c4.043,3.786,4.814,9.539,7.443,14.204
		c10.254,3.357,4.647,13.538,8.481,24.168c2.214,5.941,1.69,12.583-0.326,18.514c-1.285,3.361-0.267,6.989-0.287,10.498
		c-79.634-2.412-125.095-1.831-159.64-2.55c0.186,22.112-7.683,20.16-14.145,21.668c-30.769,4.536-83.767,7.835-112.163,9.124
		c-68.115,1.835-83.135-8.253-143.32-9.144c-43.407-0.299-27.72,4.547-74.215,7.167c-24.417,0.709-95.058-0.48-116.799-11.526
		c-137.357,52.206-234.117-3.91-266.257-144.783c-6.891-31.296-12-57.995,5.447-113.438
		c31.698-98.716,115.013-213.621,179.212-294.172c150.995-189.023,245.195-240.246,91.711-253.259
		c-67.302-4.204-57.732,3.041-102.802,3.143c-12.781,0.672-25.562-0.297-38.343-0.227c0.613-4.369,0.919-8.768,1.552-13.127
		c-38.167-2.164-61.591-39.911,26.412-59.2c-6.732-4.29-13.513-8.491-20.195-12.84C226.873,730.423,267.618,720.825,308.887,716.881
		 M1138.044,1536.45c0.148,14.155-0.801,28.29-1.008,42.445c10.668,2.184,46.475,9.712,48.01-1.038
		c1.761-12.48-7.157-26.448-12.406-27.272c-10.952-2.353-22.231-2.728-33.381-3.282
		C1138.805,1543.676,1138.301,1540.068,1138.044,1536.45z"/>
	<path fill="#3C2415" d="M1102.479,951.181c-40.84-47.171-33.193-47.942-52.805-18.326c-3.41-11.447-7.107-22.794-10.656-34.201
		c8.135,2.669,16.33,5.476,24.86,6.573C1083.666,903.957,1074.271,859.293,1102.479,951.181z"/>
	<path fill="#3C2415" d="M954.869,919.806c24.984-35.518,70.979-25.954,78.248-1.71
		C1009.366,904.364,981.072,907.088,954.869,919.806z"/>
	<path fill="#3C2415" d="M1485.426,921.576c-12.458,43.38,4.516,26.74-0.811,76.311c-3.033,22.185-7.521,41.641-25.612,57.045
		c6.715-18.028,16.782-46.802,15.381-66.08C1473.084,963.997,1469.332,937.051,1485.426,921.576z"/>
	<path fill="#3C2415" d="M615.741,939.032c-9.094,31.651-34.917,124.876-13.354,149.34c-12.87-7.295-25.987-14.985-35.783-26.284
		c-10.943-3.21-39.718,22.797-48.416,30.505C538.259,1050.45,579.719,969.157,615.741,939.032z"/>
	<path fill="#3C2415" d="M664.295,981.903c-6.712,27.379-18.231,79.379-19.325,108.693c-0.162,24.315,16.578,51.884,30.999,71.566
		c-85.688-56.444-162.756-45.822-210.546-1.582c32.015-48.638,95.252-67.679,153.126-63.994
		C621.803,1061.648,645.953,1011.553,664.295,981.903z"/>
	<path fill="#3C2415" d="M1336.047,1535.224c21.465,10.338,24.017,24.769,32.195,68.739c-7.839,0.556-15.692-15.561-16.488-24
		C1351.021,1570.17,1340.745,1546.682,1336.047,1535.224z"/>
</g>
</svg>
